# xmcd CD database file
#
# Track frame offsets:
#	150
#	19863
#	37805
#	55743
#	68922
#	83135
#	101295
#	115630
#	130928
#	147945
#	164660
#	176075
#	191873
#	206735
#	224545
#	241490
#	257085
#	271623
#	285388
#	301155
#	318585
#
# Disc length: 4450 seconds
#
# Revision: 0
# Processed by: cddbd v1.5.2PL0 Copyright (c) Steve Scherf et al.
# Submitted via: CDex 1.70beta2
#
DISCID=30116015
DTITLE=ChartBreakers - ChartBreakers CGC-505
DYEAR=0000
DGENRE=Country
TTITLE0=Reba McEntire and Linda Davis/Does He Love You
TTITLE1=Lee Roy Parnell/On The Road
TTITLE2=Billy Ray Cyrus/In The Heart Of A Woman
TTITLE3=Sammy Kershaw/She Don't Know She's Beautiful
TTITLE4=Hal Ketchum/Hearts Are Gonna Roll
TTITLE5=Little Texas/What Might Have Been
TTITLE6=Reba McEntire/It's Your Call
TTITLE7=Nitty Gritty Dirt Band/Fishin' In The Dark
TTITLE8=K T Oslin/Come Next Monday
TTITLE9=Lee Roy Parnell/What Kind Of Fool Do You Think I Am
TTITLE10=Collin Raye/Every Second
TTITLE11=Sawyer Brown/Café On The Corner
TTITLE12=Pam Tillis/Don't Tell Me What To Do
TTITLE13=Steve Wariner/A Woman Loves
TTITLE14=Trisha Yearwood/You Say You Will
TTITLE15=Alabama/40 Hour Week For A Livin'
TTITLE16=Clint Black/Where Are You Now
TTITLE17=Carlene Carter/Come On Back
TTITLE18=Billy Dean/Only Here For A Little While
TTITLE19=Judds/Born To Be Blue
TTITLE20=Patty Loveless/Jealous Bone
EXTD=YEAR: 0000
EXTT0=
EXTT1=
EXTT2=
EXTT3=
EXTT4=
EXTT5=
EXTT6=
EXTT7=
EXTT8=
EXTT9=
EXTT10=
EXTT11=
EXTT12=
EXTT13=
EXTT14=
EXTT15=
EXTT16=
EXTT17=
EXTT18=
EXTT19=
EXTT20=
PLAYORDER=
